<?xml version="1.0" encoding="UTF-8"?>
<svg width="162px" height="32px" viewBox="0 0 162 32" version="1.1" xmlns="http://www.w3.org/2000/svg" xmlns:xlink="http://www.w3.org/1999/xlink">
    <!-- Generator: Sketch 41.2 (35397) - http://www.bohemiancoding.com/sketch -->
    <title>Logo</title>
    <desc>Created with Sketch.</desc>
    <defs>
        <linearGradient x1="6.64284455%" y1="50%" x2="106.391152%" y2="50%" id="linearGradient-1">
            <stop stop-color="#CB2642" offset="0%"></stop>
            <stop stop-color="#FF4422" offset="100%"></stop>
        </linearGradient>
    </defs>
    <g id="Final-versions" stroke="none" stroke-width="1" fill="none" fill-rule="evenodd">
        <g id="Home-page" transform="translate(-32.000000, -18.000000)">
            <g id="Header" transform="translate(31.000000, 10.000000)">
                <g id="Logo" transform="translate(0.000000, 7.000000)">
                    <path d="M58.062,20.778 C57.865999,20.581999 57.768,20.3160017 57.768,19.98 L57.768,13.56 C57.768,13.2319984 57.865999,12.970001 58.062,12.774 C58.258001,12.577999 58.5239983,12.48 58.86,12.48 C59.2040017,12.48 59.475999,12.577999 59.676,12.774 C59.876001,12.970001 59.976,13.2319984 59.976,13.56 L59.976,19.98 C59.976,20.3160017 59.876001,20.581999 59.676,20.778 C59.475999,20.974001 59.2040017,21.072 58.86,21.072 C58.5239983,21.072 58.258001,20.974001 58.062,20.778 Z M68.966,12.78 C69.162001,12.980001 69.26,13.2399984 69.26,13.56 L69.26,19.98 C69.26,20.3080016 69.164001,20.571999 68.972,20.772 C68.779999,20.972001 68.5320015,21.072 68.228,21.072 C67.8679982,21.072 67.5960009,20.9520012 67.412,20.712 L63.764,16.164 L63.764,19.98 C63.764,20.3080016 63.6720009,20.571999 63.488,20.772 C63.3039991,20.972001 63.0560016,21.072 62.744,21.072 C62.4399985,21.072 62.192001,20.972001 62,20.772 C61.807999,20.571999 61.712,20.3080016 61.712,19.98 L61.712,13.56 C61.712,13.2399984 61.807999,12.980001 62,12.78 C62.192001,12.579999 62.4399985,12.48 62.744,12.48 C63.0880017,12.48 63.355999,12.5999988 63.548,12.84 L67.196,17.376 L67.196,13.56 C67.196,13.2319984 67.2899991,12.970001 67.478,12.774 C67.6660009,12.577999 67.9119985,12.48 68.216,12.48 C68.5200015,12.48 68.769999,12.579999 68.966,12.78 Z M73.21,20.766 C73.005999,20.569999 72.904,20.3080016 72.904,19.98 L72.904,14.328 L71.212,14.328 C70.8599982,14.328 70.5980009,14.2540007 70.426,14.106 C70.2539991,13.9579993 70.168,13.7320015 70.168,13.428 C70.168,13.1239985 70.2539991,12.9000007 70.426,12.756 C70.5980009,12.6119993 70.8599982,12.54 71.212,12.54 L76.828,12.54 C77.1800018,12.54 77.4419991,12.6119993 77.614,12.756 C77.7860009,12.9000007 77.872,13.1239985 77.872,13.428 C77.872,13.7320015 77.7860009,13.9579993 77.614,14.106 C77.4419991,14.2540007 77.1800018,14.328 76.828,14.328 L75.136,14.328 L75.136,19.98 C75.136,20.3080016 75.034001,20.569999 74.83,20.766 C74.625999,20.962001 74.3560017,21.06 74.02,21.06 C73.6839983,21.06 73.414001,20.962001 73.21,20.766 Z M79.044,20.736 C78.8679991,20.5599991 78.78,20.3080016 78.78,19.98 L78.78,13.56 C78.78,13.2319984 78.8679991,12.9800009 79.044,12.804 C79.2200009,12.6279991 79.4719984,12.54 79.8,12.54 L83.952,12.54 C84.2960017,12.54 84.5559991,12.6119993 84.732,12.756 C84.9080009,12.9000007 84.996,13.1079986 84.996,13.38 C84.996,13.9560029 84.6480035,14.244 83.952,14.244 L80.928,14.244 L80.928,15.852 L83.712,15.852 C84.4080035,15.852 84.756,16.1359972 84.756,16.704 C84.756,16.9760014 84.6680009,17.1839993 84.492,17.328 C84.3159991,17.4720007 84.0560017,17.544 83.712,17.544 L80.928,17.544 L80.928,19.296 L83.952,19.296 C84.6480035,19.296 84.996,19.5839971 84.996,20.16 C84.996,20.4320014 84.9080009,20.6399993 84.732,20.784 C84.5559991,20.9280007 84.2960017,21 83.952,21 L79.8,21 C79.4719984,21 79.2200009,20.9120009 79.044,20.736 Z M93.476,20.208 C93.476,20.4640013 93.3700011,20.6779991 93.158,20.85 C92.945999,21.0220009 92.7000014,21.108 92.42,21.108 C92.2279991,21.108 92.0480009,21.0640004 91.88,20.976 C91.7119992,20.8879996 91.5680006,20.7560009 91.448,20.58 L89.888,18.3 C89.7759995,18.1399992 89.6580006,18.0220004 89.534,17.946 C89.4099994,17.8699996 89.2640009,17.832 89.096,17.832 L88.316,17.832 L88.316,19.98 C88.316,20.3160017 88.220001,20.581999 88.028,20.778 C87.8359991,20.974001 87.5720017,21.072 87.236,21.072 C86.8999983,21.072 86.634001,20.974001 86.438,20.778 C86.241999,20.581999 86.144,20.3160017 86.144,19.98 L86.144,13.56 C86.144,13.2319984 86.2319991,12.9800009 86.408,12.804 C86.5840009,12.6279991 86.8359984,12.54 87.164,12.54 L90.176,12.54 C91.2000051,12.54 91.9699974,12.7619978 92.486,13.206 C93.0020026,13.6500022 93.26,14.2919958 93.26,15.132 C93.26,15.7720032 93.0840018,16.3139978 92.732,16.758 C92.3799983,17.2020022 91.8840032,17.4999992 91.244,17.652 C91.5080013,17.6920002 91.737999,17.7799993 91.934,17.916 C92.130001,18.0520007 92.3239991,18.2559986 92.516,18.528 L93.26,19.596 C93.4040007,19.8120011 93.476,20.015999 93.476,20.208 Z M90.878,15.948 C91.0900011,15.7959992 91.196,15.5480017 91.196,15.204 C91.196,14.8519982 91.0900011,14.5980008 90.878,14.442 C90.665999,14.2859992 90.3160025,14.208 89.828,14.208 L88.292,14.208 L88.292,16.176 L89.828,16.176 C90.3160025,16.176 90.665999,16.1000008 90.878,15.948 Z M95.128,20.772 C94.927999,20.571999 94.828,20.3080016 94.828,19.98 L94.828,13.56 C94.828,13.2319984 94.9159991,12.9800009 95.092,12.804 C95.2680009,12.6279991 95.5199984,12.54 95.848,12.54 L99.88,12.54 C100.240002,12.54 100.503999,12.6099993 100.672,12.75 C100.840001,12.8900007 100.924,13.1119985 100.924,13.416 C100.924,13.7120015 100.838001,13.9279993 100.666,14.064 C100.493999,14.2000007 100.232002,14.268 99.88,14.268 L97,14.268 L97,15.828 L99.64,15.828 C99.9920018,15.828 100.253999,15.8999993 100.426,16.044 C100.598001,16.1880007 100.684,16.4079985 100.684,16.704 C100.684,17.0000015 100.598001,17.2159993 100.426,17.352 C100.253999,17.4880007 99.9920018,17.556 99.64,17.556 L97,17.556 L97,19.98 C97,20.3160017 96.902001,20.581999 96.706,20.778 C96.509999,20.974001 96.2480017,21.072 95.92,21.072 C95.5919984,21.072 95.328001,20.972001 95.128,20.772 Z M109.536,20.088 C109.536,20.3520013 109.430001,20.5759991 109.218,20.76 C109.005999,20.9440009 108.764001,21.036 108.492,21.036 C108.307999,21.036 108.140001,20.9880005 107.988,20.892 C107.835999,20.7959995 107.716,20.652001 107.628,20.46 L107.088,19.248 L103.2,19.248 L102.648,20.46 C102.56,20.652001 102.438001,20.7959995 102.282,20.892 C102.125999,20.9880005 101.956001,21.036 101.772,21.036 C101.499999,21.036 101.254001,20.9440009 101.034,20.76 C100.813999,20.5759991 100.704,20.3520013 100.704,20.088 C100.704,19.9439993 100.74,19.7960008 100.812,19.644 L103.98,13.14 C104.084001,12.9239989 104.237999,12.7580006 104.442,12.642 C104.646001,12.5259994 104.871999,12.468 105.12,12.468 C105.360001,12.468 105.583999,12.5259994 105.792,12.642 C106.000001,12.7580006 106.155999,12.9239989 106.26,13.14 L109.428,19.644 C109.5,19.7960008 109.536,19.9439993 109.536,20.088 Z M103.944,17.592 L106.344,17.592 L105.144,14.916 L103.944,17.592 Z M112.214,20.58 C111.577997,20.2279982 111.086002,19.7240033 110.738,19.068 C110.389998,18.4119967 110.216,17.6440044 110.216,16.764 C110.216,15.8919956 110.389998,15.1280033 110.738,14.472 C111.086002,13.8159967 111.577997,13.3120018 112.214,12.96 C112.850003,12.6079982 113.591996,12.432 114.44,12.432 C115.456005,12.432 116.347996,12.6999973 117.116,13.236 C117.252001,13.3320005 117.35,13.4359994 117.41,13.548 C117.47,13.6600006 117.5,13.8039991 117.5,13.98 C117.5,14.2280012 117.430001,14.4379991 117.29,14.61 C117.149999,14.7820009 116.980001,14.868 116.78,14.868 C116.659999,14.868 116.552001,14.8500002 116.456,14.814 C116.36,14.7779998 116.248001,14.7200004 116.12,14.64 C115.839999,14.4719992 115.576001,14.3520004 115.328,14.28 C115.079999,14.2079996 114.824001,14.172 114.56,14.172 C113.847996,14.172 113.318002,14.3859979 112.97,14.814 C112.621998,15.2420021 112.448,15.8919956 112.448,16.764 C112.448,17.6440044 112.621998,18.2979979 112.97,18.726 C113.318002,19.1540021 113.847996,19.368 114.56,19.368 C114.800001,19.368 115.031999,19.3300004 115.256,19.254 C115.480001,19.1779996 115.767998,19.0600008 116.12,18.9 C116.288001,18.8119996 116.412,18.7520002 116.492,18.72 C116.572,18.6879998 116.667999,18.672 116.78,18.672 C116.980001,18.672 117.149999,18.7579991 117.29,18.93 C117.430001,19.1020009 117.5,19.3119988 117.5,19.56 C117.5,19.7280008 117.47,19.8699994 117.41,19.986 C117.35,20.1020006 117.252001,20.2079995 117.116,20.304 C116.347996,20.8400027 115.456005,21.108 114.44,21.108 C113.591996,21.108 112.850003,20.9320018 112.214,20.58 Z M119.032,20.736 C118.855999,20.5599991 118.768,20.3080016 118.768,19.98 L118.768,13.56 C118.768,13.2319984 118.855999,12.9800009 119.032,12.804 C119.208001,12.6279991 119.459998,12.54 119.788,12.54 L123.94,12.54 C124.284002,12.54 124.543999,12.6119993 124.72,12.756 C124.896001,12.9000007 124.984,13.1079986 124.984,13.38 C124.984,13.9560029 124.636004,14.244 123.94,14.244 L120.916,14.244 L120.916,15.852 L123.7,15.852 C124.396004,15.852 124.744,16.1359972 124.744,16.704 C124.744,16.9760014 124.656001,17.1839993 124.48,17.328 C124.303999,17.4720007 124.044002,17.544 123.7,17.544 L120.916,17.544 L120.916,19.296 L123.94,19.296 C124.636004,19.296 124.984,19.5839971 124.984,20.16 C124.984,20.4320014 124.896001,20.6399993 124.72,20.784 C124.543999,20.9280007 124.284002,21 123.94,21 L119.788,21 C119.459998,21 119.208001,20.9120009 119.032,20.736 Z M127.41,20.898 C126.861997,20.7579993 126.412002,20.5640012 126.06,20.316 C125.923999,20.2119995 125.826,20.1040006 125.766,19.992 C125.706,19.8799994 125.676,19.7360009 125.676,19.56 C125.676,19.3199988 125.747999,19.1120009 125.892,18.936 C126.036001,18.7599991 126.203999,18.672 126.396,18.672 C126.500001,18.672 126.6,18.6879998 126.696,18.72 C126.792001,18.7520002 126.911999,18.8119996 127.056,18.9 C127.384002,19.0840009 127.709998,19.2159996 128.034,19.296 C128.358002,19.3760004 128.723998,19.416 129.132,19.416 C129.604002,19.416 129.961999,19.3460007 130.206,19.206 C130.450001,19.0659993 130.572,18.8600014 130.572,18.588 C130.572,18.4039991 130.458001,18.2460007 130.23,18.114 C130.001999,17.9819993 129.568003,17.8520006 128.928,17.724 C128.135996,17.5559992 127.516002,17.3560012 127.068,17.124 C126.619998,16.8919988 126.306001,16.6180016 126.126,16.302 C125.945999,15.9859984 125.856,15.6040022 125.856,15.156 C125.856,14.6439974 126.007999,14.1800021 126.312,13.764 C126.616002,13.3479979 127.033997,13.0220012 127.566,12.786 C128.098003,12.5499988 128.695997,12.432 129.36,12.432 C129.944003,12.432 130.463998,12.4959994 130.92,12.624 C131.376002,12.7520006 131.791998,12.9519986 132.168,13.224 C132.312001,13.3280005 132.414,13.4379994 132.474,13.554 C132.534,13.6700006 132.564,13.8119992 132.564,13.98 C132.564,14.2200012 132.494001,14.4279991 132.354,14.604 C132.213999,14.7800009 132.048001,14.868 131.856,14.868 C131.752,14.868 131.656,14.8540001 131.568,14.826 C131.48,14.7979999 131.356001,14.7360005 131.196,14.64 C131.156,14.6159999 131.042001,14.5540005 130.854,14.454 C130.665999,14.3539995 130.446001,14.2740003 130.194,14.214 C129.941999,14.1539997 129.668002,14.124 129.372,14.124 C128.963998,14.124 128.636001,14.2019992 128.388,14.358 C128.139999,14.5140008 128.016,14.7199987 128.016,14.976 C128.016,15.1280008 128.06,15.2519995 128.148,15.348 C128.236,15.4440005 128.399999,15.5379995 128.64,15.63 C128.880001,15.7220005 129.235998,15.8159995 129.708,15.912 C130.476004,16.0800008 131.079998,16.2819988 131.52,16.518 C131.960002,16.7540012 132.271999,17.0279984 132.456,17.34 C132.640001,17.6520016 132.732,18.0199979 132.732,18.444 C132.732,18.9720026 132.584002,19.437998 132.288,19.842 C131.991999,20.246002 131.578003,20.5579989 131.046,20.778 C130.513997,20.9980011 129.896004,21.108 129.192,21.108 C128.551997,21.108 127.958003,21.0380007 127.41,20.898 Z M134.09,20.736 C133.869999,20.5119989 133.76,20.2360016 133.76,19.908 C133.76,19.5799984 133.869999,19.3040011 134.09,19.08 C134.310001,18.8559989 134.587998,18.744 134.924,18.744 C135.252002,18.744 135.525999,18.8559989 135.746,19.08 C135.966001,19.3040011 136.076,19.5799984 136.076,19.908 C136.076,20.2360016 135.966001,20.5119989 135.746,20.736 C135.525999,20.9600011 135.252002,21.072 134.924,21.072 C134.587998,21.072 134.310001,20.9600011 134.09,20.736 Z" id="INTERFACES." fill="#1E2022"></path>
                    <path d="M138.062,20.778 C137.865999,20.581999 137.768,20.3160017 137.768,19.98 L137.768,13.56 C137.768,13.2319984 137.855999,12.9800009 138.032,12.804 C138.208001,12.6279991 138.459998,12.54 138.788,12.54 L141.86,12.54 C142.796005,12.54 143.523997,12.7779976 144.044,13.254 C144.564003,13.7300024 144.824,14.3919958 144.824,15.24 C144.824,16.0800042 144.562003,16.7399976 144.038,17.22 C143.513997,17.7000024 142.788005,17.94 141.86,17.94 L139.976,17.94 L139.976,19.98 C139.976,20.3160017 139.876001,20.581999 139.676,20.778 C139.475999,20.974001 139.204002,21.072 138.86,21.072 C138.523998,21.072 138.258001,20.974001 138.062,20.778 Z M141.56,16.284 C141.968002,16.284 142.269999,16.2000008 142.466,16.032 C142.662001,15.8639992 142.76,15.6040018 142.76,15.252 C142.76,14.5559965 142.360004,14.208 141.56,14.208 L139.976,14.208 L139.976,16.284 L141.56,16.284 Z M153.424,20.208 C153.424,20.4640013 153.318001,20.6779991 153.106,20.85 C152.893999,21.0220009 152.648001,21.108 152.368,21.108 C152.175999,21.108 151.996001,21.0640004 151.828,20.976 C151.659999,20.8879996 151.516001,20.7560009 151.396,20.58 L149.836,18.3 C149.723999,18.1399992 149.606001,18.0220004 149.482,17.946 C149.357999,17.8699996 149.212001,17.832 149.044,17.832 L148.264,17.832 L148.264,19.98 C148.264,20.3160017 148.168001,20.581999 147.976,20.778 C147.783999,20.974001 147.520002,21.072 147.184,21.072 C146.847998,21.072 146.582001,20.974001 146.386,20.778 C146.189999,20.581999 146.092,20.3160017 146.092,19.98 L146.092,13.56 C146.092,13.2319984 146.179999,12.9800009 146.356,12.804 C146.532001,12.6279991 146.783998,12.54 147.112,12.54 L150.124,12.54 C151.148005,12.54 151.917997,12.7619978 152.434,13.206 C152.950003,13.6500022 153.208,14.2919958 153.208,15.132 C153.208,15.7720032 153.032002,16.3139978 152.68,16.758 C152.327998,17.2020022 151.832003,17.4999992 151.192,17.652 C151.456001,17.6920002 151.685999,17.7799993 151.882,17.916 C152.078001,18.0520007 152.271999,18.2559986 152.464,18.528 L153.208,19.596 C153.352001,19.8120011 153.424,20.015999 153.424,20.208 Z M150.826,15.948 C151.038001,15.7959992 151.144,15.5480017 151.144,15.204 C151.144,14.8519982 151.038001,14.5980008 150.826,14.442 C150.613999,14.2859992 150.264002,14.208 149.776,14.208 L148.24,14.208 L148.24,16.176 L149.776,16.176 C150.264002,16.176 150.613999,16.1000008 150.826,15.948 Z M156.486,20.574 C155.849997,20.2179982 155.360002,19.7140033 155.016,19.062 C154.671998,18.4099967 154.5,17.6440044 154.5,16.764 C154.5,15.8839956 154.671998,15.1180033 155.016,14.466 C155.360002,13.8139967 155.849997,13.3120018 156.486,12.96 C157.122003,12.6079982 157.871996,12.432 158.736,12.432 C159.600004,12.432 160.349997,12.6079982 160.986,12.96 C161.622003,13.3120018 162.109998,13.8139967 162.45,14.466 C162.790002,15.1180033 162.96,15.8839956 162.96,16.764 C162.96,17.6440044 162.788002,18.4099967 162.444,19.062 C162.099998,19.7140033 161.610003,20.2179982 160.974,20.574 C160.337997,20.9300018 159.592004,21.108 158.736,21.108 C157.871996,21.108 157.122003,20.9300018 156.486,20.574 Z M160.236,18.738 C160.596002,18.2859977 160.776,17.6280043 160.776,16.764 C160.776,15.8999957 160.594002,15.2440022 160.23,14.796 C159.865998,14.3479978 159.368003,14.124 158.736,14.124 C158.095997,14.124 157.596002,14.3459978 157.236,14.79 C156.875998,15.2340022 156.696,15.8919956 156.696,16.764 C156.696,17.6360044 156.875998,18.2959978 157.236,18.744 C157.596002,19.1920022 158.095997,19.416 158.736,19.416 C159.376003,19.416 159.875998,19.1900023 160.236,18.738 Z" id="PRO" fill="#F23D2A"></path>
                    <g id="Graphics" transform="translate(0.052182, 0.500000)">
                        <path d="M0.947817837,7.96420255 C0.947817837,4.65250488 3.61187616,1.57834207 6.90438433,1.20812452 C6.90438433,1.20812452 9.10596491,0.5 22.0474383,0.5 C34.9889118,0.5 37.2123459,1.2102736 37.2123459,1.2102736 C40.4899973,1.62866789 43.1470588,4.64640473 43.1470588,7.96420255 L43.1470588,24.9963175 C43.1470588,28.3080152 40.4892474,31.3828101 37.2041875,31.7595857 C37.2041875,31.7595857 34.6808165,32.5 22.0474383,32.5 C9.41406018,32.5 6.87975806,31.7584818 6.87975806,31.7584818 C3.60363794,31.3355393 0.947817837,28.3141153 0.947817837,24.9963175 L0.947817837,7.96420255 Z" id="Rectangle-5" fill="url(#linearGradient-1)"></path>
                        <rect id="Rectangle-2" fill="#FFFFFF" opacity="0.65" x="12" y="12" width="14.0664137" height="14" rx="2"></rect>
                        <rect id="Rectangle-2-Copy" fill="#FFFFFF" opacity="0.65" x="18.028463" y="7" width="14.0664137" height="14" rx="2"></rect>
                    </g>
                </g>
            </g>
        </g>
    </g>
</svg>