<?xml version="1.0" encoding="UTF-8"?>
<svg width="160px" height="32px" viewBox="0 0 160 32" version="1.1" xmlns="http://www.w3.org/2000/svg" xmlns:xlink="http://www.w3.org/1999/xlink">
    <!-- Generator: Sketch 41.2 (35397) - http://www.bohemiancoding.com/sketch -->
    <title>Logo</title>
    <desc>Created with Sketch.</desc>
    <defs>
        <linearGradient x1="6.64284455%" y1="50%" x2="106.391152%" y2="50%" id="linearGradient-1">
            <stop stop-color="#CB2642" offset="0%"></stop>
            <stop stop-color="#FF4422" offset="100%"></stop>
        </linearGradient>
    </defs>
    <g id="Design-flow" stroke="none" stroke-width="1" fill="none" fill-rule="evenodd">
        <g id="Home-page---interactions" transform="translate(-32.000000, -18.000000)">
            <g id="Header" transform="translate(31.000000, 10.000000)">
                <g id="Logo" transform="translate(0.000000, 7.000000)">
                    <path d="M57.876,21 L57.876,12.504 L59.94,12.504 L59.94,21 L57.876,21 Z M67.092,21 L63.672,15.444 L63.636,15.444 L63.684,21 L61.692,21 L61.692,12.504 L64.032,12.504 L67.44,18.048 L67.476,18.048 L67.428,12.504 L69.42,12.504 L69.42,21 L67.092,21 Z M74.808,14.256 L74.808,21 L72.756,21 L72.756,14.256 L70.356,14.256 L70.356,12.504 L77.208,12.504 L77.208,14.256 L74.808,14.256 Z M78.144,21 L78.144,12.504 L83.856,12.504 L83.856,14.244 L80.124,14.244 L80.124,15.84 L83.652,15.84 L83.652,17.484 L80.124,17.484 L80.124,19.248 L84.072,19.248 L84.072,21 L78.144,21 Z M89.976,21 L88.14,17.628 L87.444,17.628 L87.444,21 L85.428,21 L85.428,12.504 L88.668,12.504 C89.076002,12.504 89.4739981,12.5459996 89.862,12.63 C90.2500019,12.7140004 90.5979985,12.855999 90.906,13.056 C91.2140015,13.256001 91.4599991,13.5199984 91.644,13.848 C91.8280009,14.1760016 91.92,14.5839976 91.92,15.072 C91.92,15.6480029 91.7640016,16.131998 91.452,16.524 C91.1399984,16.916002 90.7080028,17.1959992 90.156,17.364 L92.376,21 L89.976,21 Z M89.892,15.108 C89.892,14.907999 89.8500004,14.7460006 89.766,14.622 C89.6819996,14.4979994 89.5740007,14.4020003 89.442,14.334 C89.3099993,14.2659997 89.1620008,14.2200001 88.998,14.196 C88.8339992,14.1719999 88.6760008,14.16 88.524,14.16 L87.432,14.16 L87.432,16.14 L88.404,16.14 C88.5720008,16.14 88.7439991,16.1260001 88.92,16.098 C89.0960009,16.0699999 89.2559993,16.0200004 89.4,15.948 C89.5440007,15.8759996 89.6619995,15.7720007 89.754,15.636 C89.8460005,15.4999993 89.892,15.3240011 89.892,15.108 Z M95.412,14.256 L95.412,16.008 L98.7,16.008 L98.7,17.7 L95.412,17.7 L95.412,21 L93.384,21 L93.384,12.504 L98.976,12.504 L98.976,14.256 L95.412,14.256 Z M106.056,21 L105.396,19.332 L102.108,19.332 L101.484,21 L99.252,21 L102.816,12.504 L104.808,12.504 L108.336,21 L106.056,21 Z M103.776,14.772 L102.696,17.688 L104.832,17.688 L103.776,14.772 Z M116.52,19.824 C116.143998,20.2560022 115.680003,20.5979987 115.128,20.85 C114.575997,21.1020013 113.940004,21.228 113.22,21.228 C112.563997,21.228 111.958003,21.1200011 111.402,20.904 C110.845997,20.6879989 110.364002,20.382002 109.956,19.986 C109.547998,19.589998 109.228001,19.1160028 108.996,18.564 C108.763999,18.0119972 108.648,17.4040033 108.648,16.74 C108.648,16.0599966 108.765999,15.4440028 109.002,14.892 C109.238001,14.3399972 109.563998,13.8700019 109.98,13.482 C110.396002,13.0939981 110.883997,12.796001 111.444,12.588 C112.004003,12.379999 112.607997,12.276 113.256,12.276 C113.856003,12.276 114.445997,12.3819989 115.026,12.594 C115.606003,12.8060011 116.075998,13.115998 116.436,13.524 L115.044,14.916 C114.851999,14.6519987 114.600002,14.4560006 114.288,14.328 C113.975998,14.1999994 113.656002,14.136 113.328,14.136 C112.967998,14.136 112.638002,14.2019993 112.338,14.334 C112.037999,14.4660007 111.780001,14.6479988 111.564,14.88 C111.347999,15.1120012 111.180001,15.3859984 111.06,15.702 C110.939999,16.0180016 110.88,16.3639981 110.88,16.74 C110.88,17.1240019 110.939999,17.4759984 111.06,17.796 C111.180001,18.1160016 111.345999,18.3899989 111.558,18.618 C111.770001,18.8460011 112.023999,19.0239994 112.32,19.152 C112.616001,19.2800006 112.939998,19.344 113.292,19.344 C113.700002,19.344 114.055998,19.2640008 114.36,19.104 C114.664002,18.9439992 114.907999,18.7360013 115.092,18.48 L116.52,19.824 Z M117.396,21 L117.396,12.504 L123.108,12.504 L123.108,14.244 L119.376,14.244 L119.376,15.84 L122.904,15.84 L122.904,17.484 L119.376,17.484 L119.376,19.248 L123.324,19.248 L123.324,21 L117.396,21 Z M129.168,14.712 C128.991999,14.4879989 128.762001,14.3100007 128.478,14.178 C128.193999,14.0459993 127.920001,13.98 127.656,13.98 C127.519999,13.98 127.382001,13.9919999 127.242,14.016 C127.101999,14.0400001 126.976001,14.0859997 126.864,14.154 C126.751999,14.2220003 126.658,14.3099995 126.582,14.418 C126.506,14.5260005 126.468,14.6639992 126.468,14.832 C126.468,14.9760007 126.498,15.0959995 126.558,15.192 C126.618,15.2880005 126.705999,15.3719996 126.822,15.444 C126.938001,15.5160004 127.075999,15.5819997 127.236,15.642 C127.396001,15.7020003 127.575999,15.7639997 127.776,15.828 C128.064001,15.9240005 128.363998,16.0299994 128.676,16.146 C128.988002,16.2620006 129.271999,16.415999 129.528,16.608 C129.784001,16.800001 129.995999,17.0379986 130.164,17.322 C130.332001,17.6060014 130.416,17.9599979 130.416,18.384 C130.416,18.8720024 130.326001,19.2939982 130.146,19.65 C129.965999,20.0060018 129.724002,20.2999988 129.42,20.532 C129.115998,20.7640012 128.768002,20.9359994 128.376,21.048 C127.983998,21.1600006 127.580002,21.216 127.164,21.216 C126.555997,21.216 125.968003,21.1100011 125.4,20.898 C124.831997,20.6859989 124.360002,20.384002 123.984,19.992 L125.328,18.624 C125.536001,18.8800013 125.809998,19.0939991 126.15,19.266 C126.490002,19.4380009 126.827998,19.524 127.164,19.524 C127.316001,19.524 127.463999,19.5080002 127.608,19.476 C127.752001,19.4439998 127.877999,19.3920004 127.986,19.32 C128.094001,19.2479996 128.18,19.1520006 128.244,19.032 C128.308,18.9119994 128.34,18.7680008 128.34,18.6 C128.34,18.4399992 128.3,18.3040006 128.22,18.192 C128.14,18.0799994 128.026001,17.9780005 127.878,17.886 C127.729999,17.7939995 127.546001,17.7100004 127.326,17.634 C127.105999,17.5579996 126.856001,17.4760004 126.576,17.388 C126.303999,17.2999996 126.038001,17.1960006 125.778,17.076 C125.517999,16.9559994 125.286001,16.8020009 125.082,16.614 C124.877999,16.4259991 124.714001,16.1980013 124.59,15.93 C124.465999,15.6619987 124.404,15.3360019 124.404,14.952 C124.404,14.4799976 124.499999,14.0760017 124.692,13.74 C124.884001,13.4039983 125.135998,13.1280011 125.448,12.912 C125.760002,12.6959989 126.111998,12.5380005 126.504,12.438 C126.896002,12.3379995 127.291998,12.288 127.692,12.288 C128.172002,12.288 128.661998,12.3759991 129.162,12.552 C129.662002,12.7280009 130.099998,12.9879983 130.476,13.332 L129.168,14.712 Z M133.908,19.944 C133.908,20.2800017 133.790001,20.5599989 133.554,20.784 C133.317999,21.0080011 133.036002,21.12 132.708,21.12 C132.539999,21.12 132.382001,21.0900003 132.234,21.03 C132.085999,20.9699997 131.956001,20.8880005 131.844,20.784 C131.731999,20.6799995 131.644,20.5580007 131.58,20.418 C131.516,20.2779993 131.484,20.1240008 131.484,19.956 C131.484,19.7959992 131.516,19.6440007 131.58,19.5 C131.644,19.3559993 131.731999,19.2300005 131.844,19.122 C131.956001,19.0139995 132.085999,18.9280003 132.234,18.864 C132.382001,18.7999997 132.539999,18.768 132.708,18.768 C133.036002,18.768 133.317999,18.8799989 133.554,19.104 C133.790001,19.3280011 133.908,19.6079983 133.908,19.944 Z" id="INTERFACES." fill="#1E2022"></path>
                    <path d="M142.32,15.12 C142.32,15.6160025 142.228001,16.0339983 142.044,16.374 C141.859999,16.7140017 141.612002,16.987999 141.3,17.196 C140.987998,17.404001 140.628002,17.5559995 140.22,17.652 C139.811998,17.7480005 139.388002,17.796 138.948,17.796 L137.928,17.796 L137.928,21 L135.876,21 L135.876,12.504 L138.996,12.504 C139.460002,12.504 139.893998,12.5499995 140.298,12.642 C140.702002,12.7340005 141.053998,12.881999 141.354,13.086 C141.654001,13.290001 141.889999,13.5579983 142.062,13.89 C142.234001,14.2220017 142.32,14.6319976 142.32,15.12 Z M140.268,15.132 C140.268,14.931999 140.228,14.7680006 140.148,14.64 C140.068,14.5119994 139.960001,14.4120004 139.824,14.34 C139.687999,14.2679996 139.534001,14.2200001 139.362,14.196 C139.189999,14.1719999 139.012001,14.16 138.828,14.16 L137.928,14.16 L137.928,16.164 L138.792,16.164 C138.984001,16.164 139.167999,16.1480002 139.344,16.116 C139.520001,16.0839998 139.677999,16.0280004 139.818,15.948 C139.958001,15.8679996 140.068,15.7620007 140.148,15.63 C140.228,15.4979993 140.268,15.332001 140.268,15.132 Z M148.104,21 L146.268,17.628 L145.572,17.628 L145.572,21 L143.556,21 L143.556,12.504 L146.796,12.504 C147.204002,12.504 147.601998,12.5459996 147.99,12.63 C148.378002,12.7140004 148.725998,12.855999 149.034,13.056 C149.342002,13.256001 149.587999,13.5199984 149.772,13.848 C149.956001,14.1760016 150.048,14.5839976 150.048,15.072 C150.048,15.6480029 149.892002,16.131998 149.58,16.524 C149.267998,16.916002 148.836003,17.1959992 148.284,17.364 L150.504,21 L148.104,21 Z M148.02,15.108 C148.02,14.907999 147.978,14.7460006 147.894,14.622 C147.81,14.4979994 147.702001,14.4020003 147.57,14.334 C147.437999,14.2659997 147.290001,14.2200001 147.126,14.196 C146.961999,14.1719999 146.804001,14.16 146.652,14.16 L145.56,14.16 L145.56,16.14 L146.532,16.14 C146.700001,16.14 146.871999,16.1260001 147.048,16.098 C147.224001,16.0699999 147.383999,16.0200004 147.528,15.948 C147.672001,15.8759996 147.79,15.7720007 147.882,15.636 C147.974,15.4999993 148.02,15.3240011 148.02,15.108 Z M160.368,16.716 C160.368,17.3880034 160.252001,18.0019972 160.02,18.558 C159.787999,19.1140028 159.466002,19.589998 159.054,19.986 C158.641998,20.382002 158.152003,20.6879989 157.584,20.904 C157.015997,21.1200011 156.400003,21.228 155.736,21.228 C155.071997,21.228 154.458003,21.1200011 153.894,20.904 C153.329997,20.6879989 152.842002,20.382002 152.43,19.986 C152.017998,19.589998 151.696001,19.1140028 151.464,18.558 C151.231999,18.0019972 151.116,17.3880034 151.116,16.716 C151.116,16.0359966 151.231999,15.4220027 151.464,14.874 C151.696001,14.3259973 152.017998,13.8600019 152.43,13.476 C152.842002,13.0919981 153.329997,12.796001 153.894,12.588 C154.458003,12.379999 155.071997,12.276 155.736,12.276 C156.400003,12.276 157.015997,12.379999 157.584,12.588 C158.152003,12.796001 158.641998,13.0919981 159.054,13.476 C159.466002,13.8600019 159.787999,14.3259973 160.02,14.874 C160.252001,15.4220027 160.368,16.0359966 160.368,16.716 Z M158.172,16.716 C158.172,16.3479982 158.112001,16.0040016 157.992,15.684 C157.871999,15.3639984 157.706001,15.0900011 157.494,14.862 C157.281999,14.6339989 157.026002,14.4540007 156.726,14.322 C156.425998,14.1899993 156.096002,14.124 155.736,14.124 C155.375998,14.124 155.048001,14.1899993 154.752,14.322 C154.455999,14.4540007 154.200001,14.6339989 153.984,14.862 C153.767999,15.0900011 153.602001,15.3639984 153.486,15.684 C153.369999,16.0040016 153.312,16.3479982 153.312,16.716 C153.312,17.1000019 153.371999,17.4539984 153.492,17.778 C153.612001,18.1020016 153.777999,18.3799988 153.99,18.612 C154.202001,18.8440012 154.455999,19.0259993 154.752,19.158 C155.048001,19.2900007 155.375998,19.356 155.736,19.356 C156.096002,19.356 156.423999,19.2900007 156.72,19.158 C157.016001,19.0259993 157.271999,18.8440012 157.488,18.612 C157.704001,18.3799988 157.871999,18.1020016 157.992,17.778 C158.112001,17.4539984 158.172,17.1000019 158.172,16.716 Z" id="PRO" fill="#F23D2A"></path>
                    <g id="Graphics" transform="translate(0.052182, 0.500000)">
                        <path d="M0.947817837,7.96420255 C0.947817837,4.65250488 3.61187616,1.57834207 6.90438433,1.20812452 C6.90438433,1.20812452 9.10596491,0.5 22.0474383,0.5 C34.9889118,0.5 37.2123459,1.2102736 37.2123459,1.2102736 C40.4899973,1.62866789 43.1470588,4.64640473 43.1470588,7.96420255 L43.1470588,24.9963175 C43.1470588,28.3080152 40.4892474,31.3828101 37.2041875,31.7595857 C37.2041875,31.7595857 34.6808165,32.5 22.0474383,32.5 C9.41406018,32.5 6.87975806,31.7584818 6.87975806,31.7584818 C3.60363794,31.3355393 0.947817837,28.3141153 0.947817837,24.9963175 L0.947817837,7.96420255 Z" id="Rectangle-5" fill="url(#linearGradient-1)"></path>
                        <rect id="Rectangle-2" fill="#FFFFFF" opacity="0.65" x="12" y="12" width="14.0664137" height="14" rx="2"></rect>
                        <rect id="Rectangle-2-Copy" fill="#FFFFFF" opacity="0.65" x="18.028463" y="7" width="14.0664137" height="14" rx="2"></rect>
                    </g>
                </g>
            </g>
        </g>
    </g>
</svg>