<?xml version="1.0" encoding="UTF-8"?>
<svg width="18px" height="20px" viewBox="0 0 18 20" version="1.1" xmlns="http://www.w3.org/2000/svg" xmlns:xlink="http://www.w3.org/1999/xlink">
    <!-- Generator: Sketch 41.2 (35397) - http://www.bohemiancoding.com/sketch -->
    <title>Path</title>
    <desc>Created with Sketch.</desc>
    <defs></defs>
    <g id="Design-flow" stroke="none" stroke-width="1" fill="none" fill-rule="evenodd">
        <g id="Home-page---interactions" transform="translate(-1192.000000, -91.000000)" fill="#EDF2F5">
            <path d="M1209.06464,100.288261 C1210.19396,103.219118 1211.76442,109.788579 1203.8724,111 C1203.78012,110.999305 1203.69244,110.960195 1203.63108,110.892348 C1203.56971,110.824502 1203.54039,110.734259 1203.55037,110.643955 C1203.8045,108.455928 1202.98552,106.279466 1201.34466,104.782242 C1201.14763,104.599723 1200.84029,104.599723 1200.64325,104.782242 C1199.00905,106.274709 1198.19067,108.441495 1198.43754,110.622245 C1198.4469,110.716503 1198.41353,110.810023 1198.34634,110.877822 C1198.27916,110.945622 1198.18501,110.980796 1198.08904,110.973948 C1196.69504,110.856714 1192.47331,110.144624 1192.02776,105.893796 C1191.86297,104.061178 1192.4365,102.23822 1193.62469,100.817987 C1195.30544,98.7511897 1198.18609,94.7391725 1197.98758,91.6997655 C1197.97963,91.4634544 1198.09745,91.2401662 1198.29843,91.1106548 C1198.49941,90.9811434 1198.75445,90.9641544 1198.97132,91.065832 C1201.17703,92.2555428 1205.7649,95.2688977 1204.94879,102.563475 C1206.10285,102.014299 1207.09462,101.18313 1207.82944,100.149317 C1207.95717,99.9607941 1208.17271,99.8481918 1208.40292,99.8497183 C1208.69547,99.8436398 1208.96033,100.019175 1209.06464,100.288261 Z" id="Path"></path>
        </g>
    </g>
</svg>