<?xml version="1.0" encoding="UTF-8"?>
<svg width="20px" height="20px" viewBox="0 0 20 20" version="1.1" xmlns="http://www.w3.org/2000/svg" xmlns:xlink="http://www.w3.org/1999/xlink">
    <!-- Generator: Sketch 41.2 (35397) - http://www.bohemiancoding.com/sketch -->
    <title>Shape</title>
    <desc>Created with Sketch.</desc>
    <defs></defs>
    <g id="Design-flow" stroke="none" stroke-width="1" fill="none" fill-rule="evenodd">
        <g id="Home-page---interactions" transform="translate(-1240.000000, -91.000000)" fill="#7E8E99">
            <path d="M1250,91 C1244.47222,91 1240,95.4722222 1240,101 C1240,106.527778 1244.47222,111 1250,111 C1255.52778,111 1260,106.527778 1260,101 C1260,95.4722222 1255.52778,91 1250,91 Z M1254.16667,102.833333 L1249.16667,102.833333 C1248.86111,102.833333 1248.61111,102.583333 1248.61111,102.277778 L1248.61111,96.3888889 C1248.61111,96.0833333 1248.86111,95.8333333 1249.16667,95.8333333 C1249.47222,95.8333333 1249.72222,96.0833333 1249.72222,96.3888889 L1249.72222,101.694444 L1254.16667,101.694444 C1254.47222,101.694444 1254.72222,101.944444 1254.72222,102.25 C1254.72222,102.555556 1254.47222,102.833333 1254.16667,102.833333 Z" id="Shape"></path>
        </g>
    </g>
</svg>