<?xml version="1.0" encoding="UTF-8"?>
<svg width="19px" height="15px" viewBox="0 0 19 15" version="1.1" xmlns="http://www.w3.org/2000/svg" xmlns:xlink="http://www.w3.org/1999/xlink">
    <!-- Generator: Sketch 41.2 (35397) - http://www.bohemiancoding.com/sketch -->
    <title>Shape</title>
    <desc>Created with Sketch.</desc>
    <defs></defs>
    <g id="Design-flow" stroke="none" stroke-width="1" fill="none" fill-rule="evenodd" opacity="0.85">
        <g id="Home-page---interactions" transform="translate(-1057.000000, -25.000000)" fill="#8E9DA6">
            <g id="Header" transform="translate(31.000000, 10.000000)">
                <g id="Twitter" transform="translate(1011.000000, 0.000000)">
                    <path d="M33.2000008,16.7676686 C32.5298125,17.0588648 31.8028831,17.2680947 31.0513301,17.3489825 C31.8253654,16.8841471 32.414189,16.1518427 32.6914713,15.2793326 C31.9752478,15.7096559 31.1669536,16.0235006 30.3244006,16.1863548 C29.6435065,15.4529718 28.6735535,15 27.5997535,15 C25.5324475,15 23.8698239,16.6867808 23.8698239,18.7564307 C23.8698239,19.0476269 23.9051533,19.338823 23.9618945,19.6181557 C20.8668238,19.45638 18.1068472,17.9669655 16.2707883,15.6859288 C15.9474706,16.2435155 15.7622589,16.8841471 15.7622589,17.5830179 C15.7622589,18.8858512 16.4206706,20.0366154 17.4248825,20.7117591 C16.8135765,20.688032 16.2354589,20.5133143 15.7387059,20.2350602 L15.7387059,20.2814359 C15.7387059,22.1062652 17.0202001,23.6194069 18.7299296,23.9688423 C18.4183884,24.0497301 18.0832942,24.0961058 17.7482001,24.0961058 C17.5062472,24.0961058 17.2750001,24.0734572 17.0448236,24.0378665 C17.5180236,25.5272811 18.892659,26.6090209 20.5317296,26.6446116 C19.2491649,27.6562487 17.6443531,28.2494261 15.9003647,28.2494261 C15.5888236,28.2494261 15.2997647,28.238641 15,28.2041289 C16.6519177,29.2740052 18.614306,29.8909097 20.7287179,29.8909097 C27.587977,29.8909097 31.3414595,24.1672871 31.3414595,19.2007745 C31.3414595,19.0368418 31.3414595,18.8750662 31.3307536,18.7111335 C32.0566125,18.1761953 32.6914713,17.5118367 33.2000008,16.7676686 L33.2000008,16.7676686 Z" id="Shape"></path>
                </g>
            </g>
        </g>
    </g>
</svg>